# xmcd
#
# Track frame offsets:
# 150
# 18900
# 33055
# 48531
# 62202
# 78296
# 94868
# 106947
# 122316
# 138113
# 157514
# 174030
# 188170
# 203298
# 219246
# 234489
# 247367
# 262829
# 280593
# 303379
# 320164
#
# Disc length: 4462 seconds
#
#
# Revision: 0
# Processed by: cddbd v1.5.1PL0 Copyright (c) Steve Scherf et al.
# Submitted via: FreeRIP 2.00 
#
DISCID=02116c15
DTITLE=Various Artist - the very best of pure r&b - cd2
DYEAR=2002
DGENRE=R&B
TTITLE0=wu-tang clan - gravel pit
TTITLE1=sisqo - thong song
TTITLE2=mis-teeq - all i want
TTITLE3=swv - right here
TTITLE4=dr dre - nuthin' but a 'g' thang
TTITLE5=warren g and nate dogg - regulate
TTITLE6=toni braxton - youre making me high
TTITLE7=tatyana ali - boy you knock me out
TTITLE8=blu cantrell - hit em up style
TTITLE9=bubba sparxxx - ugly
TTITLE10=p diddy, black rob and mark curry - bad boy for life
TTITLE11=mary j blige feat-common - dance for me
TTITLE12=joe - stutter
TTITLE13=luniz - i got 5 on it
TTITLE14=aaliyah  - age aint nothin but a number
TTITLE15=afro-man - because i got high
TTITLE16=busta rhymes - break your neck
TTITLE17=jay-z - hard knock life
TTITLE18=ginuwine - pony
TTITLE19=craig david - fill me in
TTITLE20=alicia keys - fallin
EXTD=
EXTT0=
EXTT1=
EXTT2=
EXTT3=
EXTT4=
EXTT5=
EXTT6=
EXTT7=
EXTT8=
EXTT9=
EXTT10=
EXTT11=
EXTT12=
EXTT13=
EXTT14=
EXTT15=
EXTT16=
EXTT17=
EXTT18=
EXTT19=
EXTT20=
PLAYORDER=
